<?xml version="1.0" encoding="UTF-8"?>
<svg version="1.1" xmlns="http://www.w3.org/2000/svg" width="512" height="512">
<path d="M0 0 C2.67114258 1.13891602 2.67114258 1.13891602 5.39453125 2.75390625 C6.93101318 3.65254395 6.93101318 3.65254395 8.49853516 4.56933594 C9.59214355 5.22708008 10.68575195 5.88482422 11.8125 6.5625 C12.9764227 7.25008774 14.14098564 7.93659274 15.30615234 8.62207031 C18.30527407 10.39132418 21.29449211 12.17656274 24.2802124 13.96832275 C26.89900579 15.53930137 29.52226334 17.10279859 32.14453125 18.66796875 C36.21697579 21.10417515 40.28361385 23.54980658 44.34765625 26 C51.73363172 30.44871283 59.14669716 34.85126775 66.5625 39.25 C67.2343634 39.64860229 67.90622681 40.04720459 68.59844971 40.45788574 C72.02783595 42.49244266 75.45744938 44.52661612 78.88720703 46.56054688 C84.92856535 50.14349762 90.96774061 53.73012473 97.00704956 57.31652832 C100.33794061 59.29450788 103.66897781 61.27224129 107 63.25 C108.33333403 64.04166549 109.66666736 64.83333216 111 65.625 C111.66 66.016875 112.32 66.40875 113 66.8125 C151.00000002 89.37500001 151.00000002 89.37500001 152.99978638 90.56237793 C154.33382621 91.3544609 155.66787162 92.14653446 157.00192261 92.93859863 C160.32449231 94.91131898 163.64696643 96.88419994 166.96923828 98.85742188 C173.80806654 102.91901033 180.64870572 106.97750677 187.4921875 111.03125 C211.52205271 125.2677875 211.52205271 125.2677875 221.8125 131.5 C222.52325684 131.92667969 223.23401367 132.35335937 223.96630859 132.79296875 C230.18276771 136.58360778 230.18276771 136.58360778 232 139 C232.49573337 142.89504791 232.58016848 145.09493717 230.4375 148.4375 C228 150 228 150 221 150 C215.39 146.7 209.78 143.4 204 140 C204 187.85 204 235.7 204 285 C189.48 285 174.96 285 160 285 C159.9906543 280.37677734 159.98130859 275.75355469 159.97167969 270.99023438 C159.93792024 255.71913416 159.88257787 240.4481686 159.81609726 225.17717743 C159.77631546 215.91792008 159.7439186 206.65874762 159.72900391 197.39941406 C159.71598293 189.3274397 159.68900691 181.25565218 159.64538693 173.18378305 C159.6227821 168.91113781 159.60708873 164.63872292 159.60811615 160.36601257 C159.60886335 156.34068937 159.59088905 152.3158752 159.55883217 148.29068375 C159.55034477 146.81696521 159.54857538 145.3431895 159.55419731 143.86945724 C159.67137248 131.6750725 159.67137248 131.6750725 153.55291367 121.49285126 C148.69924076 117.21759583 145.17933461 115.75187182 138.76434326 115.73257446 C137.48304031 115.72404449 136.20173737 115.71551453 134.88160706 115.70672607 C133.46371448 115.70742509 132.04582199 115.70834815 130.62792969 115.70947266 C129.13294641 115.70348745 127.63796623 115.69668192 126.14299011 115.68911743 C122.08288543 115.67144641 118.02286506 115.66676151 113.96272564 115.66548586 C111.42452557 115.66406398 108.88634691 115.65979364 106.34815216 115.65449142 C97.48843526 115.63598542 88.62877855 115.62782127 79.76904297 115.62939453 C71.51883653 115.63059514 63.26889204 115.60951028 55.01875186 115.5779072 C47.92984501 115.55172302 40.84102358 115.54102818 33.75206876 115.54230535 C29.52080406 115.54281448 25.28977201 115.53715875 21.0585556 115.51594925 C17.07592757 115.49653139 13.09375317 115.49646633 9.11110878 115.51098251 C7.65348203 115.51306755 6.19582663 115.50838791 4.73824883 115.4962616 C-7.34210442 115.38792635 -7.34210442 115.38792635 -17.50775528 121.37652016 C-22.60726978 126.96551207 -23.29767358 132.93047195 -23.31884766 140.20849609 C-23.32900091 141.02201853 -23.33915417 141.83554096 -23.3496151 142.67371559 C-23.38009371 145.29028543 -23.39736197 147.90674734 -23.4140625 150.5234375 C-23.43100969 152.14559857 -23.44882773 153.76775078 -23.4675293 155.38989258 C-23.53056246 161.3848268 -23.57677246 167.37992839 -23.625 173.375 C-23.74875 186.78125 -23.8725 200.1875 -24 214 C-59.31 214 -94.62 214 -131 214 C-130.95359375 230.62890625 -130.9071875 247.2578125 -130.859375 264.390625 C-130.83894675 274.89974205 -130.81952645 285.40884479 -130.8046875 295.91796875 C-130.79685579 301.43668668 -130.7887738 306.95540415 -130.78027344 312.47412109 C-130.77921844 313.16582008 -130.77816345 313.85751907 -130.77707648 314.57017863 C-130.75967044 325.74297543 -130.72813037 336.91569003 -130.69138882 348.08843806 C-130.65400708 359.55130452 -130.63206952 371.01410424 -130.62364602 382.47703338 C-130.61842205 388.91704481 -130.60610708 395.3568698 -130.57707977 401.79682159 C-130.54999709 407.85422936 -130.5415406 413.91137327 -130.54756927 419.96883583 C-130.54646584 422.19572443 -130.53846973 424.42262156 -130.5231781 426.64945793 C-130.50336239 429.68307571 -130.50803035 432.71568901 -130.51898193 435.74932861 C-130.50733057 436.6364863 -130.4956792 437.52364399 -130.48367476 438.43768525 C-130.54175776 444.36419888 -130.54175776 444.36419888 -132.83559036 447.54684162 C-135.89652814 449.60191812 -138.14678459 449.50121023 -141.81640625 449.50170898 C-142.83176956 449.50981346 -142.83176956 449.50981346 -143.86764526 449.51808167 C-146.09971168 449.53056402 -148.33048686 449.51408316 -150.5625 449.49609375 C-152.11661853 449.49624875 -153.67073744 449.49773793 -155.22485352 449.50050354 C-158.47982907 449.5018873 -161.73436386 449.48933393 -164.98925781 449.46655273 C-169.15910562 449.43816774 -173.32822117 449.44090551 -177.49812317 449.45364285 C-180.70664715 449.46060172 -183.91500222 449.45280844 -187.12350464 449.44038582 C-188.66087191 449.43587332 -190.19825732 449.43553277 -191.73562622 449.43945122 C-193.88532606 449.4423656 -196.03402099 449.42584748 -198.18359375 449.40405273 C-199.40618896 449.39864975 -200.62878418 449.39324677 -201.88842773 449.38768005 C-205.25574849 448.96813553 -206.63960553 448.39756725 -209 446 C-210.00005275 442.99984174 -210.12434203 441.03205315 -210.12304783 437.89879322 C-210.12503888 436.83735122 -210.12702993 435.77590921 -210.12908131 434.6823023 C-210.12616847 433.51208349 -210.12325563 432.34186468 -210.12025452 431.13618469 C-210.12110894 429.89630505 -210.12196337 428.65642541 -210.12284368 427.37897366 C-210.12420906 423.93105379 -210.12107217 420.48319032 -210.11606562 417.03527725 C-210.11175627 413.31954884 -210.11320789 409.60382224 -210.1139679 405.88809204 C-210.11449282 399.44820554 -210.11134928 393.00832916 -210.10573006 386.56844521 C-210.09761083 377.25739839 -210.0949994 367.94635647 -210.09374207 358.6353065 C-210.09155221 343.5295733 -210.08489393 328.4238455 -210.07543945 313.31811523 C-210.06626361 298.64233426 -210.05918362 283.96655475 -210.05493164 269.29077148 C-210.05453756 267.93436425 -210.05453756 267.93436425 -210.05413551 266.55055485 C-210.05283049 262.01419317 -210.05156678 257.47783148 -210.05032361 252.94146979 C-210.03995307 215.29430938 -210.02233656 177.64715511 -210 140 C-210.47832275 140.30292969 -210.95664551 140.60585937 -211.44946289 140.91796875 C-213.64400776 142.29502116 -215.85276304 143.64747283 -218.0625 145 C-218.81466797 145.47695312 -219.56683594 145.95390625 -220.34179688 146.4453125 C-225.05304083 149.30061187 -228.32393071 150.75250919 -234 150 C-236.4375 148.4375 -236.4375 148.4375 -238 146 C-238.625 142.5625 -238.625 142.5625 -238 139 C-234.17259444 135.40381803 -230.15271631 132.74156224 -225.59765625 130.109375 C-224.99803574 129.76046204 -224.39841522 129.41154907 -223.78062439 129.05206299 C-221.87760607 127.94605949 -219.97029965 126.84773127 -218.0625 125.75 C-215.57310994 124.30920173 -213.08541824 122.86548207 -210.59765625 121.421875 C-209.97263718 121.05985992 -209.3476181 120.69784485 -208.70365906 120.32485962 C-203.01270731 117.02283939 -197.3720917 113.63995621 -191.7355957 110.24609375 C-185.52880804 106.50958635 -179.29355381 102.82083595 -173.0625 99.125 C-171.67250327 98.30016859 -170.28252988 97.47529783 -168.89257812 96.65039062 C-166.01978326 94.94548757 -163.14689051 93.24074962 -160.27392578 91.53613281 C-154.17609924 87.91793114 -148.07950949 84.29764678 -141.98287964 80.6774292 C-138.65530883 78.70152559 -135.32764976 76.72577065 -132 74.75 C-130.66666625 73.95833404 -129.33333291 73.16666737 -128 72.375 C-87.99999998 48.62499999 -87.99999998 48.62499999 -86.00015259 47.43759155 C-84.66630951 46.64562159 -83.33246755 45.85364975 -81.99862671 45.06167603 C-78.67310158 43.08713438 -75.34755728 41.11262503 -72.02197266 39.13818359 C-66.62736513 35.93529821 -61.23276775 32.73239618 -55.83886719 29.52832031 C-55.1474765 29.11762802 -54.45608582 28.70693573 -53.7437439 28.28379822 C-52.34983114 27.45573173 -50.95597104 26.62757659 -49.56216431 25.79933167 C-46.16101118 23.77852071 -42.75879229 21.75955396 -39.35400391 19.74487305 C-33.31773267 16.17137096 -27.29513948 12.58071753 -21.3125 8.91796875 C-19.79390381 7.99636963 -19.79390381 7.99636963 -18.24462891 7.05615234 C-16.39652719 5.93320335 -14.55450214 4.80016043 -12.72021484 3.65478516 C-11.91277832 3.16671387 -11.1053418 2.67864258 -10.2734375 2.17578125 C-9.24355713 1.54023315 -9.24355713 1.54023315 -8.19287109 0.8918457 C-5.26053581 -0.30074178 -3.14547762 -0.31567338 0 0 Z M-43.46435547 73.80578613 C-45.35416696 76.04875746 -45.35416696 76.04875746 -44.9375 79.625 C-44.3249155 83.25516924 -44.3249155 83.25516924 -41 85 C-38.54488795 85.20395746 -36.20223166 85.29373668 -33.74633789 85.29052734 C-33.01105362 85.29724457 -32.27576935 85.30396179 -31.51820374 85.31088257 C-29.08628595 85.32988886 -26.6546437 85.33378793 -24.22265625 85.3359375 C-22.53258653 85.34236318 -20.84251793 85.34909136 -19.15245056 85.35610962 C-15.60917583 85.36808864 -12.06599864 85.37178976 -8.52270508 85.37060547 C-3.98174488 85.37040214 0.55859041 85.39771508 5.09940243 85.43214989 C8.59012222 85.45438308 12.08069072 85.45844413 15.57147408 85.45738602 C17.24563312 85.45974697 18.91979603 85.46859827 20.59388542 85.48405075 C22.93535062 85.50364096 25.27545642 85.49790153 27.61694336 85.48583984 C28.30850525 85.49707886 29.00006714 85.50831787 29.71258545 85.51989746 C33.06176421 85.47604095 34.74507651 85.19659193 37.43019104 83.12588501 C39.16603365 81.09006711 39.16603365 81.09006711 39.5 78.5 C38.8230163 75.1150815 37.72514049 74.10465749 35 72 C32.40258544 71.60491878 30.22763178 71.45197212 27.6328125 71.48242188 C26.52966705 71.47190796 26.52966705 71.47190796 25.40423584 71.46118164 C22.97743783 71.44360119 20.55180951 71.45522361 18.125 71.46875 C16.4363584 71.46605508 14.74771832 71.46217265 13.05908203 71.45715332 C9.52165946 71.45125824 5.98464117 71.45982127 2.44726562 71.47851562 C-2.08588845 71.50130552 -6.61809527 71.48818244 -11.1512146 71.46422577 C-14.63768647 71.44976786 -18.12393395 71.45437367 -21.6104126 71.46473694 C-23.28175977 71.46740426 -24.95312735 71.46413424 -26.62445068 71.45481873 C-28.96111975 71.44465281 -31.29625744 71.46015251 -33.6328125 71.48242188 C-34.66779877 71.47027649 -34.66779877 71.47027649 -35.72369385 71.45788574 C-39.02565914 71.51615266 -40.77240582 71.83322762 -43.46435547 73.80578613 Z " fill="#00B2E1" transform="translate(259,28)"/>
<path d="M0 0 C1.38120529 0.0001133 1.38120529 0.0001133 2.79031372 0.00022888 C4.28412064 0.00797081 4.28412064 0.00797081 5.80810547 0.01586914 C7.33538773 0.01799156 7.33538773 0.01799156 8.89352417 0.02015686 C12.15414332 0.02576639 15.41469448 0.03832051 18.67529297 0.05102539 C20.88232323 0.05603916 23.08935456 0.06060228 25.29638672 0.06469727 C30.71437877 0.07573891 36.13233101 0.09248634 41.55029297 0.11352539 C41.55576141 1.20893646 41.55576141 1.20893646 41.56134033 2.32647705 C41.59922564 9.21263357 41.65608433 16.09840096 41.73419571 22.98421097 C41.77368552 26.52424204 41.80586614 30.06402383 41.82128906 33.60424805 C41.83934668 37.67545482 41.88929022 41.74572993 41.94091797 45.81665039 C41.94214661 47.08655823 41.94337524 48.35646606 41.94464111 49.66485596 C41.96435974 50.8457782 41.98407837 52.02670044 42.00439453 53.2434082 C42.01327698 54.28265442 42.02215942 55.32190063 42.03131104 56.39263916 C42.69117414 59.85212845 43.73749272 61.03659765 46.55029297 63.11352539 C48.76669691 63.70396243 48.76669691 63.70396243 51.16357422 63.61523438 C52.52518677 63.6293058 52.52518677 63.6293058 53.91430664 63.6436615 C54.88730713 63.63242752 55.86030762 63.62119354 56.86279297 63.60961914 C57.86866455 63.61107437 58.87453613 63.6125296 59.91088867 63.61402893 C62.03583678 63.61237023 64.16079693 63.60081227 66.28564453 63.58007812 C69.53844222 63.55113085 72.78960947 63.55946875 76.04248047 63.57250977 C78.10759256 63.56627206 80.1726995 63.55788087 82.23779297 63.54711914 C83.21079346 63.55005478 84.18379395 63.55299042 85.1862793 63.55601501 C86.54789185 63.53698875 86.54789185 63.53698875 87.93701172 63.51757812 C89.13136841 63.50947365 89.13136841 63.50947365 90.34985352 63.50120544 C93.22464136 62.99471666 94.53802842 62.23469409 96.55029297 60.11352539 C97.1687638 57.39817886 97.1687638 57.39817886 97.09619141 54.26513672 C97.11591003 53.06411819 97.13562866 51.86309967 97.15594482 50.62568665 C97.15717346 49.32874374 97.1584021 48.03180084 97.15966797 46.69555664 C97.17464835 45.35460916 97.19137521 44.01368015 97.20977783 42.67277527 C97.25348091 39.14644529 97.27345651 35.62036418 97.28851318 32.09381104 C97.30807401 28.4941128 97.35004499 24.89468377 97.39013672 21.29516602 C97.46547018 14.23472162 97.5157424 7.17429662 97.55029297 0.11352539 C104.00963337 -0.01336756 110.46865181 -0.10086429 116.92895508 -0.16113281 C119.12601737 -0.1862597 121.32299621 -0.22036707 123.51977539 -0.26367188 C126.67989702 -0.32440223 129.83891254 -0.35270294 132.99951172 -0.37475586 C134.47009285 -0.4134655 134.47009285 -0.4134655 135.97038269 -0.45295715 C136.89095963 -0.45333481 137.81153656 -0.45371246 138.76000977 -0.45410156 C139.56609177 -0.46520462 140.37217377 -0.47630768 141.2026825 -0.48774719 C143.8676601 0.19480981 145.70337824 1.10260964 147.56350231 3.16389179 C149.99157977 7.96112143 149.22880919 13.83948652 149.18139648 19.09594727 C149.18653696 20.53683859 149.19381921 21.97772362 149.20307922 23.41859436 C149.22158566 27.32577129 149.20866003 31.23226538 149.18898892 35.13941383 C149.17259456 39.23036102 149.18141641 43.32126523 149.18650818 47.41223145 C149.19102827 54.2820119 149.17516468 61.15152 149.1472168 68.02124023 C149.11516512 75.96085357 149.1151808 83.89997572 149.13243157 91.83962393 C149.14830161 99.48083746 149.14156007 107.12187111 149.12449455 114.76307678 C149.11762631 118.01340022 149.11865413 121.26357936 149.12603951 124.51390076 C149.13370716 128.34229886 149.12156127 132.17013875 149.0941906 135.9984417 C149.0873106 137.40247885 149.08720474 138.80656817 149.09440613 140.21060371 C149.10311022 142.12881117 149.08469508 144.04708432 149.06495667 145.96520996 C149.06214974 147.03813545 149.05934282 148.11106094 149.05645084 149.21649933 C148.40678672 152.93489234 147.32828658 154.5693098 144.55029297 157.11352539 C141.723876 157.73714447 141.723876 157.73714447 138.3948822 157.73498535 C137.13159592 157.74619415 135.86830963 157.75740295 134.56674194 157.76895142 C133.16924591 157.75604071 131.77175445 157.7426266 130.37426758 157.72875977 C128.9007249 157.73226114 127.42718601 157.73791991 125.95365906 157.74557495 C121.95357121 157.75982935 117.95417023 157.7427564 113.95414805 157.71928978 C109.77018018 157.6991948 105.5862412 157.70505956 101.40223694 157.70739746 C94.37684791 157.70734388 87.35172777 157.68758039 80.32641602 157.65551758 C72.19995853 157.61860995 64.07385314 157.60984385 55.94732279 157.61681509 C48.13365729 157.62311602 40.32011273 157.61237437 32.50647163 157.59284973 C29.17916709 157.58466729 25.85192429 157.58196772 22.52461052 157.58354187 C18.60848531 157.58441958 14.6926957 157.57023562 10.77665901 157.54431534 C9.33791862 157.53714184 7.89914254 157.5350756 6.46038818 157.53843307 C4.49980929 157.54213618 2.539223 157.5255878 0.57872009 157.50793457 C-1.0685663 157.5023415 -1.0685663 157.5023415 -2.7491312 157.49663544 C-5.44970703 157.11352539 -5.44970703 157.11352539 -7.26398373 155.77637482 C-9.66847673 152.40433195 -9.57893159 149.27894217 -9.59014893 145.28164673 C-9.59585907 144.0646962 -9.60156921 142.84774567 -9.60745239 141.59391785 C-9.60869772 140.24319468 -9.60982283 138.8924714 -9.61083984 137.54174805 C-9.61546857 136.12086356 -9.62049331 134.69998031 -9.62588501 133.27909851 C-9.63900483 129.41749382 -9.64545303 125.55590651 -9.64989567 121.69428301 C-9.65282677 119.28191805 -9.65693163 116.86955785 -9.66139984 114.45719528 C-9.67507301 106.91001044 -9.68474083 99.36283646 -9.68860173 91.81564009 C-9.69308368 83.10229381 -9.71063859 74.3891043 -9.73960233 65.67580569 C-9.76121238 58.9411123 -9.77130563 52.20646305 -9.77264285 45.47173536 C-9.77369127 41.44905851 -9.77960694 37.42652907 -9.79746246 33.4038887 C-9.81393177 29.61997834 -9.81610433 25.83632638 -9.80732346 22.05239296 C-9.80655249 20.66445919 -9.81090368 19.27651158 -9.82078171 17.88861275 C-9.83348605 15.99224112 -9.82583818 14.09576584 -9.81719971 12.19937134 C-9.81866627 11.1385969 -9.82013283 10.07782246 -9.82164383 8.98490334 C-9.39283802 5.67449266 -8.41432405 3.78953912 -6.44970703 1.11352539 C-4.07579867 -0.07342879 -2.64725752 -0.00723294 0 0 Z " fill="#00B2E1" transform="translate(257.44970703125,155.886474609375)"/>
<path d="M0 0 C0.94067322 0.00030212 1.88134644 0.00060425 2.8505249 0.00091553 C3.85794739 0.02156067 4.86536987 0.04220581 5.90332031 0.06347656 C6.94087463 0.06913635 7.97842896 0.07479614 9.04742432 0.08062744 C12.35923523 0.10300665 15.66996175 0.15320737 18.98144531 0.20410156 C21.22752343 0.2241645 23.47361852 0.24241563 25.71972656 0.25878906 C31.2240024 0.30287638 36.72764638 0.36980415 42.23144531 0.45410156 C42.24357559 1.55284355 42.24357559 1.55284355 42.25595093 2.67378235 C42.33387258 9.57486479 42.42115592 16.47577206 42.5189724 23.37659931 C42.56893101 26.92444761 42.61526087 30.47226619 42.65332031 34.02026367 C42.697228 38.0986617 42.75687761 42.17669701 42.81738281 46.25488281 C42.82893402 47.52995193 42.84048523 48.80502106 42.85238647 50.11872864 C42.87225616 51.29972641 42.89212585 52.48072418 42.91259766 53.69750977 C42.92592133 54.73897659 42.939245 55.78044342 42.95297241 56.85346985 C43.05362307 59.68890666 43.05362307 59.68890666 45.23144531 62.45410156 C47.97733215 63.45677801 50.55709555 63.58029617 53.46166992 63.58349609 C54.28610092 63.58664825 55.11053192 63.58980042 55.95994568 63.5930481 C56.842314 63.59102386 57.72468231 63.58899963 58.63378906 63.58691406 C60.00586266 63.58834915 60.00586266 63.58834915 61.40565491 63.58981323 C63.33806426 63.59049299 65.27047591 63.58865291 67.20288086 63.58447266 C70.15451209 63.5791277 73.10599072 63.58442139 76.05761719 63.59082031 C77.93717481 63.59015937 79.81673235 63.58887789 81.69628906 63.58691406 C83.01680519 63.58995041 83.01680519 63.58995041 84.36399841 63.5930481 C88.45024601 63.57748409 92.24581023 63.48334493 96.23144531 62.45410156 C97.21325303 59.15125206 97.38443852 56.114548 97.43676758 52.67578125 C97.4567128 51.51487976 97.47665802 50.35397827 97.49720764 49.15789795 C97.51392014 47.90986389 97.53063263 46.66182983 97.54785156 45.37597656 C97.57902321 43.45341034 97.57902321 43.45341034 97.61082458 41.49200439 C97.66589279 38.09233885 97.71536895 34.69261418 97.76367188 31.29284668 C97.81399863 27.82050342 97.86962624 24.34824551 97.92480469 20.87597656 C98.03219953 14.06875895 98.13368559 7.26146417 98.23144531 0.45410156 C104.86996138 0.3781347 111.50836566 0.325537 118.1472168 0.28930664 C120.40637399 0.27420554 122.66550181 0.25372314 124.92456055 0.2277832 C128.16885624 0.19145849 131.41276487 0.17438848 134.65722656 0.16113281 C135.66981033 0.14564896 136.6823941 0.1301651 137.72566223 0.11421204 C139.13678535 0.11387215 139.13678535 0.11387215 140.57641602 0.11352539 C141.40470413 0.10686356 142.23299225 0.10020172 143.08638 0.09333801 C145.85242355 0.55853955 146.55423627 1.21700516 148.23144531 3.45410156 C148.61176205 6.15467739 148.61176205 6.15467739 148.61912537 9.48252869 C148.62903 10.74299515 148.63893463 12.00346161 148.6491394 13.30212402 C148.64490113 14.70166113 148.64034325 16.10119729 148.63549805 17.50073242 C148.64119938 18.97250386 148.64816272 20.44427087 148.65629578 21.91603088 C148.67426913 25.91605777 148.67305098 29.9158658 148.66735339 33.91592097 C148.66426742 37.25350645 148.67034741 40.59104953 148.67639214 43.92862898 C148.69044959 51.80165752 148.68886609 59.67457759 148.67749023 67.54760742 C148.66600858 75.67348754 148.68008255 83.79903763 148.70688671 91.92487425 C148.72902911 98.89821161 148.73568438 105.87144528 148.7298103 112.84481531 C148.72643589 117.01112013 148.72888761 121.17721339 148.74606133 125.34348869 C148.76150521 129.26127364 148.75760387 133.17856903 148.73875618 137.09633446 C148.73506308 138.53466955 148.73819979 139.9730407 148.74864197 141.41134262 C148.76180205 143.37375513 148.74792717 145.33629362 148.73265076 147.2986908 C148.73244147 148.39725875 148.73223219 149.4958267 148.73201656 150.62768459 C148.09731367 154.2114602 147.1985995 155.37204795 144.23144531 157.45410156 C141.44184971 157.96025944 141.44184971 157.96025944 138.16542053 157.96876526 C136.30006905 157.98785194 136.30006905 157.98785194 134.39703369 158.00732422 C133.02160454 158.00114196 131.64617725 157.99453593 130.27075195 157.98754883 C128.82015607 157.99460725 127.36956755 158.00335194 125.91899109 158.01365662 C121.98088075 158.03617015 118.04317193 158.03320637 114.10502172 158.02433515 C110.81717524 158.01922693 107.52940434 158.02651649 104.24156564 158.03380722 C96.48495126 158.05081265 88.72853358 158.04723421 80.97192383 158.03051758 C72.9703657 158.013596 64.9693531 158.0294295 56.96785456 158.06174046 C50.09722324 158.08843354 43.22676177 158.09571315 36.35608381 158.08722538 C32.25287645 158.0822952 28.14999732 158.08451626 24.04683113 158.10501289 C20.18801971 158.12336583 16.32999304 158.11741712 12.47122383 158.09281349 C11.05588676 158.08780418 9.64048994 158.09129869 8.22520065 158.10396194 C-2.28518594 158.19055613 -2.28518594 158.19055613 -7.10974121 155.79528809 C-9.87778071 150.21989556 -9.45436398 144.47812117 -9.3996582 138.36401367 C-9.40479857 136.91164781 -9.41208074 135.45928819 -9.42134094 134.00694275 C-9.43984709 130.06884408 -9.42692257 126.13142288 -9.40725064 122.19335246 C-9.39085918 118.07124089 -9.39967758 113.94917206 -9.4047699 109.82704163 C-9.40928981 102.90598736 -9.39342628 95.98520346 -9.36547852 89.06420898 C-9.33341427 81.06209289 -9.33344748 73.06046406 -9.35069329 65.05831331 C-9.36655436 57.35943168 -9.35982839 49.66072874 -9.34275627 41.96185493 C-9.33588298 38.68558561 -9.33692098 35.40945939 -9.34430122 32.13319206 C-9.35196 28.27607119 -9.33985204 24.41950524 -9.31245232 20.56247902 C-9.30556348 19.14673383 -9.30547592 17.73093686 -9.31266785 16.31519318 C-9.3213504 14.3834988 -9.30298307 12.45173911 -9.28321838 10.52012634 C-9.28041146 9.43890471 -9.27760454 8.35768309 -9.27471256 7.24369717 C-8.31366324 1.94705138 -5.16188508 -0.05550414 0 0 Z " fill="#00B1E1" transform="translate(171.7685546875,319.5458984375)"/>
<path d="M0 0 C0.82828812 0.00888245 1.65657623 0.01776489 2.50996399 0.0269165 C3.45071274 0.02721863 4.39146149 0.02752075 5.36071777 0.02783203 C6.37330154 0.04847717 7.38588531 0.06912231 8.42915344 0.09039307 C9.46812271 0.09605286 10.50709198 0.10171265 11.57754517 0.10754395 C14.89964151 0.1299548 18.22066373 0.18016117 21.54243469 0.23101807 C23.79307017 0.25107692 26.04372253 0.26932875 28.29438782 0.28570557 C33.81493729 0.32983487 39.33485927 0.39679386 44.85493469 0.48101807 C44.86080093 1.18401535 44.86666718 1.88701263 44.87271118 2.61131287 C44.93069319 9.24695294 45.00280106 15.88227306 45.0906496 22.51758862 C45.1353154 25.92863271 45.17457936 29.33955842 45.20137024 32.75079346 C45.23243275 36.67544955 45.28722087 40.59960408 45.34321594 44.52398682 C45.34960587 45.74498581 45.35599579 46.9659848 45.36257935 48.22398376 C45.3823735 49.36478897 45.40216766 50.50559418 45.42256165 51.68096924 C45.43921623 53.18321297 45.43921623 53.18321297 45.45620728 54.71580505 C45.92541777 57.96982498 46.88110704 59.8658565 48.85493469 62.48101807 C51.59042225 63.39284725 53.24391707 63.61621042 56.06343079 63.64215088 C56.90795807 63.65175842 57.75248535 63.66136597 58.62260437 63.67126465 C59.53200775 63.67551453 60.44141113 63.6797644 61.37837219 63.68414307 C62.78586227 63.69269318 62.78586227 63.69269318 64.2217865 63.70141602 C66.2072385 63.710862 68.19270615 63.71739841 70.17817688 63.72125244 C73.21133333 63.73095854 76.24381225 63.76198593 79.27680969 63.79351807 C81.20649317 63.8000483 83.13618149 63.80529869 85.06587219 63.80914307 C86.42390457 63.82766327 86.42390457 63.82766327 87.80937195 63.84655762 C88.66020355 63.84355652 89.51103516 63.84055542 90.38764954 63.83746338 C91.5032576 63.84293182 91.5032576 63.84293182 92.6414032 63.84851074 C95.68638499 63.34297987 97.46017429 62.43244014 99.85493469 60.48101807 C100.61728701 57.77496514 100.61728701 57.77496514 100.51435852 54.63262939 C100.54382317 52.83110161 100.54382317 52.83110161 100.57388306 50.99317932 C100.56995041 49.69623642 100.56601776 48.39929352 100.56196594 47.06304932 C100.57508084 45.72209934 100.59038445 44.38116912 100.60778809 43.04026794 C100.6476773 39.51384078 100.65783085 35.98792988 100.66181946 32.46130371 C100.67114381 28.86159566 100.70855272 25.26219188 100.74360657 21.66265869 C100.80822141 14.60215671 100.84142937 7.54181769 100.85493469 0.48101807 C107.63581103 0.3797364 114.41649291 0.30960282 121.19795227 0.2612915 C123.50564361 0.24115543 125.8132838 0.21384451 128.12080383 0.17926025 C131.43465277 0.13083091 134.74782817 0.10806922 138.06196594 0.09039307 C139.09642349 0.06974792 140.13088104 0.04910278 141.19668579 0.02783203 C142.63784004 0.02737885 142.63784004 0.02737885 144.10810852 0.0269165 C144.95416153 0.01803406 145.80021454 0.00915161 146.67190552 0 C148.85493469 0.48101807 148.85493469 0.48101807 150.46672344 2.12916183 C152.23836128 5.13060522 152.23744544 7.11385093 152.24934387 10.59173584 C152.26069366 11.84516281 152.27204346 13.09858978 152.28373718 14.38999939 C152.28109394 15.77645938 152.27812273 17.16291878 152.27485657 18.54937744 C152.28219697 20.01144561 152.29078312 21.47350797 152.30052185 22.93556213 C152.32274736 26.90452681 152.32566812 30.87328395 152.32377434 34.84230232 C152.32365471 38.15508734 152.33221554 41.46782826 152.34055185 44.78060102 C152.35978883 52.59466966 152.36266833 60.40863146 152.35591125 68.22271729 C152.3492665 76.28676092 152.37215131 84.3503476 152.40922499 92.41429853 C152.43989686 99.33670426 152.45128487 106.25896277 152.44738817 113.18143511 C152.44531843 117.31648553 152.4508345 121.45118024 152.47528076 125.58616638 C152.4975049 129.47367338 152.49570717 133.36043572 152.47535324 137.24794579 C152.47193565 138.67500064 152.47706464 140.10210521 152.49133682 141.52909279 C152.5094672 143.47608391 152.49380573 145.4233026 152.47639465 147.37030029 C152.47710716 148.46019508 152.47781967 149.55008987 152.47855377 150.67301178 C151.85493469 153.48101807 151.85493469 153.48101807 149.70036316 155.83119202 C146.39870602 157.74554693 144.50285356 157.98361666 140.70661926 157.98895264 C139.47009109 158.00023193 138.23356293 158.01151123 136.95956421 158.02313232 C135.59721139 158.01535585 134.23486089 158.00716322 132.87251282 157.99859619 C131.43162326 158.00401888 129.99073925 158.01114237 128.54986572 158.01983643 C124.64278734 158.03805562 120.73613193 158.03100829 116.82904625 158.01832008 C112.73809555 158.00818504 108.64718078 158.01758716 104.55622864 158.02386475 C97.68649297 158.0311397 90.81692938 158.02155751 83.94721985 158.00250244 C76.00761834 157.98073389 68.06842771 157.98778537 60.12883615 158.00980806 C53.30914499 158.02796647 46.48957743 158.03051826 39.6698699 158.02005339 C35.59803121 158.01382084 31.52638558 158.01297614 27.45455933 158.02619934 C23.6261836 158.03776375 19.79833702 158.02972193 15.97001839 158.00662231 C14.56597331 158.00133829 13.16188362 158.00284385 11.75785637 158.01167297 C9.83967059 158.02262222 7.92138736 158.0064494 6.00325012 157.98895264 C4.93032463 157.98744453 3.85739914 157.98593643 2.75196075 157.98438263 C-0.96652867 157.33828702 -2.60011576 156.25701043 -5.14506531 153.48101807 C-5.76868439 150.67301178 -5.76868439 150.67301178 -5.76652527 147.37030029 C-5.77773407 146.11687332 -5.78894287 144.86344635 -5.80049133 143.57203674 C-5.78758058 142.18557278 -5.77416647 140.79911343 -5.76029968 139.41265869 C-5.76380112 137.95059058 -5.76945997 136.48852627 -5.77711487 135.026474 C-5.79136961 131.05730781 -5.77429523 127.08883383 -5.7508297 123.11973381 C-5.73073137 118.96693039 -5.73659972 114.81415601 -5.73893738 110.66131592 C-5.73888379 103.68720067 -5.71912034 96.71335625 -5.6870575 89.73931885 C-5.65016411 81.67536462 -5.64138179 73.6117652 -5.64835501 65.5477376 C-5.65465942 57.79174029 -5.64390689 50.03586471 -5.62438965 42.27989197 C-5.61621308 38.97853359 -5.61350657 35.67723741 -5.61508179 32.37586975 C-5.61596049 28.48846782 -5.60174862 24.60140328 -5.57585526 20.71409035 C-5.56869075 19.28705798 -5.56661121 17.85998973 -5.56997299 16.43294334 C-5.57368506 14.48585117 -5.55710473 12.53875173 -5.53947449 10.59173584 C-5.53574577 9.50184105 -5.53201706 8.41194626 -5.52817535 7.28902435 C-5.01468798 3.525417 -3.88805023 0.87187201 0 0 Z " fill="#00B2E1" transform="translate(339.1450653076172,319.51898193359375)"/>
<path d="M0 0 C9.9 0 19.8 0 30 0 C30 16.83 30 33.66 30 51 C20.1 51 10.2 51 0 51 C0 34.17 0 17.34 0 0 Z " fill="#00B2E1" transform="translate(312,156)"/>
<path d="M0 0 C9.57 0 19.14 0 29 0 C29 16.5 29 33 29 50 C19.43 50 9.86 50 0 50 C0 33.5 0 17 0 0 Z " fill="#00B2E1" transform="translate(398,320)"/>
<path d="M0 0 C9.57 0 19.14 0 29 0 C29 16.5 29 33 29 50 C19.43 50 9.86 50 0 50 C0 33.5 0 17 0 0 Z " fill="#00B2E1" transform="translate(227,320)"/>
</svg>
